<svg version="1.1" id="Layer_1" xmlns="http://www.w3.org/2000/svg" xmlns:xlink="http://www.w3.org/1999/xlink" x="0px" y="0px"
	 width="100%" viewBox="0 0 778 191" enable-background="new 0 0 778 191" xml:space="preserve">
<path fill="#000000" opacity="1.000000" stroke="none" 
	d="
M119.000000,0.999999 
	C338.934845,1.000000 558.869690,1.000000 778.902222,1.000000 
	C778.902222,64.582520 778.902222,128.165237 778.902222,192.000000 
	C580.976013,192.000000 382.951874,192.000000 184.389099,191.689102 
	C182.990433,190.939453 182.130402,190.500702 181.157715,189.724457 
	C175.707275,183.952713 170.458984,178.426941 165.012604,173.103821 
	C154.554352,162.882217 143.977707,152.781815 133.464661,142.616165 
	C131.232742,140.458008 131.741989,138.352921 134.155167,136.937103 
	C136.180847,135.748642 138.817673,135.507675 140.682632,134.155731 
	C148.835846,128.245270 157.792252,123.620514 164.193787,115.124352 
	C169.851074,107.615959 173.566833,99.471115 177.257538,90.963516 
	C177.503479,90.492149 177.469421,90.033493 177.363617,89.234329 
	C177.650604,86.137695 177.497818,83.184494 178.468842,80.664299 
	C180.888947,74.383202 180.337143,68.171524 178.862671,61.928009 
	C177.462479,55.999035 175.795319,50.133106 174.450104,44.108879 
	C174.598129,43.712143 174.541611,43.445984 174.485107,43.179825 
	C174.261505,43.388573 174.037903,43.597317 173.623093,43.644676 
	C171.878021,40.322201 170.635422,36.957066 168.719040,34.033604 
	C157.500320,16.919140 142.017059,6.384764 121.445137,3.754216 
	C120.527695,3.636903 119.810478,1.953783 119.000000,0.999999 
M757.000183,151.000000 
	C757.000183,151.000000 756.979248,151.036789 757.267273,151.770813 
	C763.618652,151.957352 769.969727,152.157089 776.322449,152.275543 
	C776.545166,152.279694 776.782959,151.474762 777.368591,150.628738 
	C769.056030,137.760239 760.763916,124.878448 752.414551,112.033882 
	C750.630127,109.288803 750.375305,107.780815 754.168762,106.256012 
	C758.126221,104.665298 762.456116,102.429802 764.979858,99.194382 
	C769.272461,93.691185 774.181152,87.527122 775.355835,81.014000 
	C776.922791,72.325623 775.157043,63.297417 770.431335,54.881073 
	C765.906250,46.821907 758.310913,44.418911 750.961426,40.450432 
	C750.499329,40.494102 750.037292,40.537777 748.835815,40.730659 
	C744.914185,40.411434 740.992615,40.092205 737.037292,39.376236 
	C737.037292,39.376236 736.989624,38.979221 736.622864,38.183548 
	C719.733337,38.161167 702.843811,38.138783 685.128540,38.392731 
	C685.128540,76.426102 685.128540,114.459480 685.128540,152.492844 
	C685.368103,152.490585 685.607605,152.488327 685.847168,152.486053 
	C685.944519,151.996201 686.041809,151.506348 686.511353,151.064606 
	C686.511353,151.064606 686.882141,151.122787 687.236084,151.824326 
	C692.804199,152.070831 698.371582,152.345490 703.942261,152.494400 
	C704.278687,152.503387 704.641846,151.510971 705.089783,150.053207 
	C705.102295,139.390915 705.105225,128.728607 705.130554,118.066338 
	C705.148560,110.498161 705.609009,110.035515 712.916870,110.026825 
	C715.915649,110.023254 719.003296,110.490974 721.895691,109.936600 
	C729.097473,108.556305 732.088440,113.024513 735.267029,118.202377 
	C741.637878,128.580200 748.428345,138.700409 755.123718,149.566086 
	C755.737793,150.052216 756.351929,150.538330 757.000183,151.000000 
M641.512878,39.979202 
	C641.512878,39.979202 641.013428,39.983807 640.372375,40.535191 
	C640.257629,54.015656 640.047424,67.496445 640.092896,80.976364 
	C640.104797,84.496819 639.300232,86.048492 635.380798,86.002151 
	C619.722778,85.817032 604.059998,85.830109 588.401672,86.008080 
	C584.155701,86.056335 582.923157,84.384323 583.005310,80.367134 
	C583.199524,70.875175 583.044373,61.376251 583.047180,51.880150 
	C583.050781,39.887093 583.052246,40.108093 571.031250,39.800678 
	C566.298523,39.679649 564.783691,40.918076 564.818970,45.829182 
	C565.040222,76.648453 564.942993,107.470032 564.944885,138.290848 
	C564.945679,151.282059 564.939758,151.119263 578.122437,151.200989 
	C582.162354,151.226028 583.194214,149.903503 583.131653,146.053696 
	C582.925964,133.395569 583.112000,120.731567 583.021912,108.070717 
	C582.999146,104.870232 583.828735,103.024269 587.458374,103.041595 
	C603.784607,103.119553 620.112061,103.017868 636.436462,103.210724 
	C637.684753,103.225471 638.911865,105.026382 640.048584,106.930573 
	C640.032593,120.093140 639.982361,133.255875 640.046387,146.418045 
	C640.053894,147.960190 640.690552,149.499252 641.510559,151.134628 
	C641.510559,151.134628 641.980347,151.253006 642.302917,151.935333 
	C646.018555,152.288162 649.735168,152.899231 653.449524,152.886322 
	C655.345093,152.879745 657.236755,151.753632 659.492126,151.078613 
	C659.492126,151.078613 659.854614,151.027954 660.127991,151.538300 
	C660.329285,151.584412 660.695435,151.695404 660.706726,151.666702 
	C660.825195,151.365784 660.954285,151.042511 660.954529,150.725372 
	C660.980530,114.246964 661.000061,77.768547 660.963013,41.290203 
	C660.962585,40.850346 660.227722,40.411232 659.437927,39.967487 
	C659.437927,39.967487 659.040344,39.980244 658.520447,39.933586 
	C658.348267,39.958645 658.176025,39.983707 657.072449,39.948589 
	C652.376892,39.977295 647.681274,40.005997 642.499756,39.969147 
	C642.499756,39.969147 642.011230,40.013042 641.512878,39.979202 
M247.030212,150.101135 
	C247.060684,137.078964 247.091171,124.056793 247.845474,110.636284 
	C254.463516,110.465416 261.084442,110.129967 267.697510,110.245209 
	C269.252319,110.272308 271.374054,111.431412 272.227020,112.731178 
	C278.900696,122.901039 285.264709,133.273499 291.872101,143.487823 
	C293.796570,146.462860 295.803711,150.988434 298.464111,151.554382 
	C304.266327,152.788696 310.512543,151.935883 317.248383,151.935883 
	C316.542328,150.208221 316.313324,149.292023 315.835602,148.532166 
	C308.544952,136.935638 301.379913,125.254677 293.809967,113.842552 
	C291.538330,110.417923 291.709534,108.362762 295.159210,106.441353 
	C296.431274,105.732849 297.687408,104.979836 299.012970,104.385803 
	C308.879486,99.964165 313.898224,90.821884 315.220551,81.595703 
	C316.312653,73.975838 315.741760,65.355354 311.678925,57.190792 
	C307.234772,48.259968 299.255859,45.050777 291.743866,41.704052 
	C285.937958,39.117390 278.724213,39.342964 271.834076,39.674274 
	C257.248352,40.375629 242.608643,39.955334 227.517746,39.996086 
	C227.517746,39.996086 227.044373,39.991936 226.435043,39.813534 
	C226.311508,40.789585 226.080429,41.765591 226.079956,42.741699 
	C226.063171,78.193405 226.066437,113.645119 226.076080,149.096832 
	C226.076385,150.221893 226.172821,151.346909 226.263214,153.317169 
	C233.375427,152.884186 240.174438,152.470261 247.020432,151.552277 
	C247.021378,151.383530 247.022324,151.214798 247.030212,150.101135 
M486.001160,101.007965 
	C486.001160,101.007965 485.967285,100.984779 486.265594,101.623886 
	C488.855652,102.096573 491.445679,102.569260 494.004364,103.009888 
	C494.004364,103.009888 493.968384,102.983276 494.317841,103.653557 
	C495.553253,103.780243 496.788696,103.906929 498.003082,104.008469 
	C498.003082,104.008469 497.975708,103.992874 498.279175,104.695770 
	C499.527252,104.807831 500.775299,104.919891 502.000153,105.005936 
	C502.000153,105.005936 501.970703,104.987991 502.273376,105.693367 
	C503.523956,105.806961 504.774567,105.920563 506.000275,106.006531 
	C506.000275,106.006531 505.969116,105.986763 506.235199,106.649643 
	C508.766937,107.418045 511.263062,108.660263 513.838013,108.854057 
	C518.861511,109.232117 521.538269,112.225021 522.700073,116.478561 
	C523.840271,120.653137 524.826233,125.135551 521.304199,128.948303 
	C517.313477,133.268494 512.786377,134.925949 506.552521,135.451187 
	C496.940552,136.261002 487.853485,135.205917 479.038208,132.213760 
	C474.651154,130.724686 470.832703,127.311249 467.041870,124.397697 
	C464.266083,122.264328 462.313385,122.571564 460.497742,125.300560 
	C458.752686,127.923508 456.726654,130.448608 455.532104,133.312088 
	C454.912567,134.797058 455.158234,137.944229 456.152588,138.592407 
	C463.211182,143.193680 470.316589,147.873871 477.922485,151.424988 
	C482.105194,153.377869 487.262299,153.490097 492.025940,153.900711 
	C501.759033,154.739746 511.381561,153.905197 520.575623,150.344513 
	C533.496216,145.340591 545.729736,131.032349 541.396240,112.797173 
	C539.454712,104.627068 535.910828,98.518112 528.284546,95.154625 
	C522.236450,92.487183 516.130798,89.832565 509.830353,87.885094 
	C502.420502,85.594719 494.772766,84.073929 487.664276,81.957481 
	C487.651123,81.727089 487.637970,81.496689 487.624847,81.266296 
	C487.299835,81.393753 486.974792,81.521210 486.084625,81.653481 
	C485.438934,81.240982 484.843567,80.684250 484.139618,80.438835 
	C478.631195,78.518456 474.513519,73.416290 475.122437,69.175095 
	C475.971497,63.261353 482.065552,57.034790 487.985443,56.846962 
	C488.320496,56.561382 488.655579,56.275806 489.819885,55.791023 
	C498.991364,54.321930 507.990204,55.234962 516.647278,58.412483 
	C519.990112,59.639446 522.835510,62.171494 526.118713,63.635166 
	C527.506287,64.253777 530.256226,64.330055 530.968933,63.473293 
	C533.030151,60.995468 534.111267,57.722813 536.065002,55.129776 
	C538.208435,52.284943 536.835693,50.502682 534.744507,48.987988 
	C526.792847,43.228481 518.024292,39.539955 508.243225,37.899284 
	C497.228973,36.051754 486.845551,37.726154 476.523895,41.537762 
	C460.112335,47.598263 454.663879,61.788197 455.046753,76.076149 
	C455.055603,76.405289 455.683746,76.717827 456.004211,77.010239 
	C456.004211,77.010239 455.977844,76.990540 456.190948,77.710922 
	C456.466919,78.817917 456.742889,79.924904 456.991150,80.996498 
	C456.991150,80.996498 456.957886,80.966125 457.077057,81.587090 
	C458.121521,82.988792 459.321411,84.301292 460.185303,85.806641 
	C465.921692,95.802818 476.292328,97.870682 486.001160,101.007965 
M355.124878,111.153862 
	C355.125153,91.668991 355.125427,72.184120 355.125763,52.699249 
	C355.125977,39.770267 355.122986,39.976387 342.343842,39.788593 
	C337.769623,39.721378 336.778625,41.328815 336.826752,45.562531 
	C337.029358,63.379791 336.973480,81.201073 336.870239,99.020065 
	C336.838531,104.492233 336.033325,109.970695 336.184631,115.429573 
	C336.296600,119.468918 336.908722,123.641235 338.191437,127.453720 
	C339.175140,130.377441 341.450165,132.907211 343.328644,135.482513 
	C352.790497,148.454163 366.463837,153.229935 381.647736,154.813263 
	C393.738861,156.074066 404.401184,151.458054 414.717560,145.996078 
	C417.287506,144.635437 419.770691,142.655594 421.577393,140.389282 
	C428.619659,131.555649 432.686951,121.888641 432.250763,110.025551 
	C431.547546,90.899658 432.067413,71.728790 432.071014,52.576920 
	C432.073456,39.725208 432.072571,39.887852 419.196167,39.796185 
	C414.993317,39.766262 413.817993,41.160706 413.847626,45.240967 
	C414.003815,66.723137 414.226349,88.215439 413.671478,109.684715 
	C413.532837,115.048500 411.629913,120.985619 408.759888,125.538422 
	C401.499481,137.055847 389.212433,137.592148 377.509094,136.552612 
	C365.887756,135.520340 356.643066,124.392906 355.124878,111.153862 
z"/>
<path fill="#424345" opacity="1.000000" stroke="none" 
	d="
M174.245544,44.239456 
	C175.795319,50.133106 177.462479,55.999035 178.862671,61.928009 
	C180.337143,68.171524 180.888947,74.383202 178.468842,80.664299 
	C177.497818,83.184494 177.650604,86.137695 177.187408,89.411156 
	C177.082932,89.928505 176.745514,90.296524 176.618713,90.380768 
	C176.479706,90.811852 176.665817,91.002937 177.031830,91.023041 
	C177.013428,91.007820 176.977524,90.976242 176.977524,90.976242 
	C173.566833,99.471115 169.851074,107.615959 164.193787,115.124352 
	C157.792252,123.620514 148.835846,128.245270 140.682632,134.155731 
	C138.817673,135.507675 136.180847,135.748642 134.155167,136.937103 
	C131.741989,138.352921 131.232742,140.458008 133.464661,142.616165 
	C143.977707,152.781815 154.554352,162.882217 165.012604,173.103821 
	C170.458984,178.426941 175.707275,183.952713 180.663635,189.755951 
	C164.814697,190.131027 149.345795,190.026917 133.880630,190.220810 
	C130.018967,190.269211 127.327423,188.962265 124.784027,186.189575 
	C118.742958,179.603912 112.444572,173.254944 106.286018,166.776260 
	C95.873001,155.821960 85.546928,144.784088 75.046249,133.914734 
	C72.629013,131.412643 72.586693,129.633179 75.158508,127.330048 
	C80.274162,122.748856 85.442749,118.195427 90.207054,113.261276 
	C95.950592,107.312996 102.203552,103.262756 110.929306,104.870544 
	C111.812218,105.033234 112.827400,104.477997 113.928253,104.086380 
	C114.075294,103.916840 114.362907,103.572243 114.709930,103.635529 
	C115.711670,103.711952 116.468498,103.949821 117.006241,103.705498 
	C132.488785,96.670967 140.474182,85.081978 139.851746,68.217155 
	C139.765182,65.872116 138.820587,63.558750 138.094650,61.075340 
	C137.916107,60.919960 137.552612,60.616703 137.625885,60.277500 
	C135.613251,52.122017 127.625305,45.021671 120.140770,44.033974 
	C118.681000,43.841331 117.348488,42.684490 116.137756,41.903473 
	C116.511223,41.713058 116.704193,41.591545 116.897171,41.470028 
	C116.772346,41.436409 116.582405,41.334789 116.534081,41.381065 
	C116.335991,41.570744 116.181061,41.805496 115.646149,41.928558 
	C113.526031,41.310490 111.770004,40.787521 109.806763,40.245667 
	C109.315346,40.239891 109.056297,40.327408 108.532104,40.594543 
	C107.767883,41.084988 107.293953,41.470215 106.767265,41.635258 
	C106.472115,41.234058 106.217827,41.071705 105.650246,40.646713 
	C83.955765,40.321457 62.562668,40.277496 40.804962,40.168938 
	C39.955128,40.017086 39.469910,39.929821 38.969315,39.499046 
	C37.193726,37.164883 35.433502,35.174229 33.820450,33.031090 
	C33.589809,32.671776 33.212002,32.464939 32.801811,32.252151 
	C32.769436,32.246201 32.746845,32.184353 32.773628,31.839123 
	C32.034168,30.846745 31.267929,30.199598 30.507412,29.500290 
	C30.513136,29.448124 30.616505,29.466320 30.534058,29.146423 
	C29.866585,28.592625 29.281561,28.358723 28.503029,28.045914 
	C28.074694,27.787401 27.938795,27.550938 27.880558,26.899206 
	C23.024416,22.089584 18.189545,17.638374 13.025007,13.207462 
	C9.826751,10.395983 6.958161,7.564205 4.030271,4.441308 
	C3.841661,3.774260 3.712353,3.398332 4.077819,3.005875 
	C38.113037,2.978186 71.653503,2.980852 105.193855,2.919861 
	C107.108627,2.916379 109.022438,2.392502 111.182228,1.995406 
	C111.618500,1.586660 111.809250,1.293329 112.000000,0.999999 
	C114.041664,1.000000 116.083336,1.000000 118.562500,0.999999 
	C119.810478,1.953783 120.527695,3.636903 121.445137,3.754216 
	C142.017059,6.384764 157.500320,16.919140 168.719040,34.033604 
	C170.635422,36.957066 171.878021,40.322201 173.730698,43.753235 
	C174.029510,44.023178 174.245560,44.239452 174.245544,44.239456 
z"/>
<path fill="#010101" opacity="1.000000" stroke="none" 
	d="
M106.820030,41.855446 
	C107.293953,41.470215 107.767883,41.084988 108.628670,40.788460 
	C109.348351,40.672962 109.681168,40.468758 110.013985,40.264549 
	C111.770004,40.787521 113.526031,41.310490 115.634888,41.913933 
	C115.987732,41.994404 115.957275,41.972378 115.957275,41.972378 
	C117.348488,42.684490 118.681000,43.841331 120.140770,44.033974 
	C127.625305,45.021671 135.613251,52.122017 137.410706,60.510090 
	C137.122253,61.641975 137.122253,62.202065 137.122253,62.762157 
	C137.323471,62.791950 137.524673,62.821743 137.725891,62.851540 
	C137.908325,62.311268 138.090759,61.770992 138.273193,61.230721 
	C138.820587,63.558750 139.765182,65.872116 139.851746,68.217155 
	C140.474182,85.081978 132.488785,96.670967 117.006241,103.705498 
	C116.468498,103.949821 115.711670,103.711952 114.483078,103.440361 
	C113.380280,103.181900 112.851357,103.181900 112.322441,103.181900 
	C112.295937,103.360489 112.269432,103.539078 112.242928,103.717667 
	C112.755684,103.897087 113.268448,104.076500 113.781204,104.255920 
	C112.827400,104.477997 111.812218,105.033234 110.929306,104.870544 
	C102.203552,103.262756 95.950592,107.312996 90.207054,113.261276 
	C85.442749,118.195427 80.274162,122.748856 75.158508,127.330048 
	C72.586693,129.633179 72.629013,131.412643 75.046249,133.914734 
	C85.546928,144.784088 95.873001,155.821960 106.286018,166.776260 
	C112.444572,173.254944 118.742958,179.603912 124.784027,186.189575 
	C127.327423,188.962265 130.018967,190.269211 133.880630,190.220810 
	C149.345795,190.026917 164.814697,190.131027 180.776306,190.093445 
	C182.130402,190.500702 182.990433,190.939453 183.925232,191.689102 
	C137.312439,192.000000 90.624878,192.000000 43.338852,191.545013 
	C42.833347,173.846771 42.887314,156.603088 43.063644,139.360672 
	C43.088497,136.930267 43.710949,134.505951 44.060677,132.068237 
	C44.064564,132.057663 44.082973,132.059631 44.400124,132.004257 
	C45.116169,131.258926 45.515064,130.568970 45.935661,129.916382 
	C45.957363,129.953766 45.874100,129.930511 46.185043,129.799957 
	C49.011948,126.783737 51.527908,123.898094 54.019909,121.005325 
	C53.995949,120.998207 54.011906,121.045578 54.328293,121.110504 
	C55.061741,120.731583 55.478806,120.287727 55.915722,119.883240 
	C55.935574,119.922615 55.849854,119.901901 56.209641,119.759941 
	C56.775982,118.932526 56.982536,118.247070 57.451359,117.425629 
	C59.331623,115.587494 60.949615,113.885345 62.956860,112.285202 
	C69.196541,106.554268 75.046967,100.721321 81.048088,94.590958 
	C86.060188,89.480316 90.921600,84.667099 96.122330,79.795082 
	C97.627304,78.132568 98.792976,76.528854 99.950279,74.955719 
	C99.941910,74.986290 99.886253,74.955765 100.213737,74.866257 
	C103.540749,71.829552 106.540276,68.882347 110.491539,65.000000 
	C73.026268,65.000000 37.013134,65.000000 1.000000,65.000000 
	C1.000000,57.312424 1.000000,49.624847 1.259238,41.409027 
	C1.695535,40.890686 1.872594,40.900597 2.179042,41.336437 
	C37.145630,41.793392 71.982834,41.824421 106.820030,41.855446 
z"/>
<path fill="#020A05" opacity="1.000000" stroke="none" 
	d="
M1.000000,125.000000 
	C1.000000,112.312439 1.000000,99.624878 1.463383,86.386017 
	C14.864960,85.885811 27.803154,85.936920 40.848824,86.331039 
	C39.983181,87.942841 39.150093,89.355858 38.015060,90.457893 
	C27.856165,100.321533 17.644085,110.130394 7.096742,120.028748 
	C5.534324,121.453941 4.322813,122.805756 3.155684,124.154678 
	C3.200066,124.151794 3.246499,124.227669 2.940365,124.239700 
	C2.356973,124.541328 2.079714,124.830940 1.594059,125.142212 
	C1.385664,125.163879 1.000000,125.000000 1.000000,125.000000 
z"/>
<path fill="#0A7833" opacity="1.000000" stroke="none" 
	d="
M40.741348,85.988022 
	C27.803154,85.936920 14.864960,85.885811 1.463383,85.917358 
	C1.000000,79.312355 1.000000,72.624710 1.000000,65.468536 
	C37.013134,65.000000 73.026268,65.000000 110.491539,65.000000 
	C106.540276,68.882347 103.540749,71.829552 100.238647,74.518616 
	C102.106842,71.692322 104.277603,69.124153 106.660881,66.304573 
	C71.893677,66.304573 37.702217,66.304573 3.373720,66.304573 
	C3.373720,72.648262 3.373720,78.691345 3.373720,85.046799 
	C14.356107,85.046799 24.980362,85.005135 35.603630,85.088943 
	C37.318462,85.102470 39.028889,85.674278 40.741348,85.988022 
z"/>
<path fill="#2F8A6B" opacity="1.000000" stroke="none" 
	d="
M44.056793,132.078827 
	C43.710949,134.505951 43.088497,136.930267 43.063644,139.360672 
	C42.887314,156.603088 42.833347,173.846771 42.870193,191.545013 
	C30.312439,192.000000 17.624876,192.000000 4.546351,191.626556 
	C4.105145,191.003845 4.054903,190.754578 4.357116,190.296600 
	C14.855557,190.093399 25.006680,189.912399 35.145123,190.191681 
	C39.496483,190.311554 41.290756,189.424957 41.190456,184.514191 
	C40.874474,169.043289 40.997787,153.559494 41.252121,138.085632 
	C41.285275,136.068542 43.078701,134.080383 44.056793,132.078827 
z"/>
<path fill="#CCCDCD" opacity="1.000000" stroke="none" 
	d="
M2.049652,40.910507 
	C1.872594,40.900597 1.695535,40.890686 1.259238,40.940392 
	C1.000000,27.705410 1.000000,14.410821 1.000000,1.000000 
	C37.687485,1.000000 74.375084,1.000000 111.531342,0.999999 
	C111.809250,1.293329 111.618500,1.586660 110.718918,1.959924 
	C75.380211,2.039454 40.750336,2.030267 6.120525,2.071839 
	C4.782290,2.073445 3.444642,2.562757 2.067312,3.307720 
	C2.002588,16.212349 1.977273,28.634071 1.977426,41.020172 
	C2.002893,40.984554 2.049652,40.910507 2.049652,40.910507 
z"/>
<path fill="#0A7833" opacity="1.000000" stroke="none" 
	d="
M4.004660,190.505295 
	C4.054903,190.754578 4.105145,191.003845 4.077694,191.626556 
	C3.555556,192.000000 3.111111,192.000000 1.924813,191.675232 
	C1.438243,190.250717 1.916093,189.150940 1.915874,188.051239 
	C1.911696,167.074341 1.851241,146.097443 1.802455,125.120544 
	C2.079714,124.830940 2.356973,124.541328 2.913731,124.698318 
	C3.134560,146.083389 3.064249,167.021851 3.059255,187.960342 
	C3.059053,188.808594 3.675511,189.656967 4.004660,190.505295 
z"/>
<path fill="#CCCDCD" opacity="1.000000" stroke="none" 
	d="
M1.594060,125.142212 
	C1.851241,146.097443 1.911696,167.074341 1.915874,188.051239 
	C1.916093,189.150940 1.438243,190.250717 1.591480,191.675232 
	C1.666668,190.677460 1.046786,189.355789 1.042873,188.032272 
	C0.981677,167.334091 1.000000,146.635681 1.000000,125.468658 
	C1.000000,125.000000 1.385664,125.163879 1.594060,125.142212 
z"/>
<path fill="#414345" opacity="1.000000" stroke="none" 
	d="
M750.984253,41.016426 
	C758.310913,44.418911 765.906250,46.821907 770.431335,54.881073 
	C775.157043,63.297417 776.922791,72.325623 775.355835,81.014000 
	C774.181152,87.527122 769.272461,93.691185 764.979858,99.194382 
	C762.456116,102.429802 758.126221,104.665298 754.168762,106.256012 
	C750.375305,107.780815 750.630127,109.288803 752.414551,112.033882 
	C760.763916,124.878448 769.056030,137.760239 776.721802,150.821701 
	C769.709778,151.022049 763.344482,151.029419 756.979248,151.036789 
	C756.979248,151.036789 757.000183,151.000000 756.845093,150.756561 
	C756.141846,149.984406 755.593750,149.455673 755.045654,148.926956 
	C748.428345,138.700409 741.637878,128.580200 735.267029,118.202377 
	C732.088440,113.024513 729.097473,108.556305 721.895691,109.936600 
	C719.003296,110.490974 715.915649,110.023254 712.916870,110.026825 
	C705.609009,110.035515 705.148560,110.498161 705.130554,118.066338 
	C705.105225,128.728607 705.102295,139.390915 704.777222,150.495926 
	C704.289307,150.916840 704.114014,150.895020 703.841309,150.767914 
	C703.448914,150.533203 703.214539,150.617889 702.573181,150.952942 
	C697.395386,150.975052 692.685120,150.960892 687.860718,150.759796 
	C687.562195,150.338928 687.335510,150.158249 687.042603,149.560760 
	C687.034363,113.049065 687.049805,77.007439 687.248230,40.852829 
	C687.660583,40.558506 687.837769,40.335667 688.432983,40.042408 
	C704.959106,39.933319 721.015076,39.853149 737.070984,39.772980 
	C740.992615,40.092205 744.914185,40.411434 749.387817,40.830780 
	C750.064331,41.044140 750.188965,41.157379 750.392822,41.389702 
	C750.787109,41.502441 750.971313,41.322548 751.014893,40.980957 
	C751.005066,40.992813 750.984253,41.016426 750.984253,41.016426 
M755.006531,65.999916 
	C755.006531,65.999916 755.040039,66.029495 754.812683,65.387611 
	C750.620300,59.290741 744.767639,56.186920 737.426392,56.095890 
	C728.608337,55.986549 719.785706,56.195068 710.968994,56.041531 
	C706.700623,55.967201 704.965637,57.655666 705.052063,61.954174 
	C705.225891,70.604034 705.234741,79.262604 705.049927,87.911987 
	C704.959045,92.165543 706.567017,93.980560 710.876892,93.918304 
	C720.027100,93.786156 729.211792,94.356346 738.321716,93.741608 
	C743.878906,93.366608 749.339233,91.149910 752.918091,86.375450 
	C756.986145,80.948433 756.949951,74.590363 755.991760,67.993942 
	C755.991760,67.993942 755.756958,67.791489 755.754272,67.254593 
	C755.495911,66.824593 755.237549,66.394592 755.006531,65.999916 
z"/>
<path fill="#414345" opacity="1.000000" stroke="none" 
	d="
M227.991074,39.995045 
	C242.608643,39.955334 257.248352,40.375629 271.834076,39.674274 
	C278.724213,39.342964 285.937958,39.117390 291.743866,41.704052 
	C299.255859,45.050777 307.234772,48.259968 311.678925,57.190792 
	C315.741760,65.355354 316.312653,73.975838 315.220551,81.595703 
	C313.898224,90.821884 308.879486,99.964165 299.012970,104.385803 
	C297.687408,104.979836 296.431274,105.732849 295.159210,106.441353 
	C291.709534,108.362762 291.538330,110.417923 293.809967,113.842552 
	C301.379913,125.254677 308.544952,136.935638 315.835602,148.532166 
	C316.313324,149.292023 316.542328,150.208221 317.248383,151.935883 
	C310.512543,151.935883 304.266327,152.788696 298.464111,151.554382 
	C295.803711,150.988434 293.796570,146.462860 291.872101,143.487823 
	C285.264709,133.273499 278.900696,122.901039 272.227020,112.731178 
	C271.374054,111.431412 269.252319,110.272308 267.697510,110.245209 
	C261.084442,110.129967 254.463516,110.465416 247.185913,110.830849 
	C246.328079,111.028847 246.129807,111.032280 245.683990,111.361145 
	C245.277679,119.135429 245.118881,126.584274 244.781189,134.191742 
	C244.721313,134.888992 244.840332,135.427643 244.977386,136.432800 
	C244.993546,141.267410 244.991669,145.635513 244.612091,150.000549 
	C242.837906,150.311325 241.441406,150.625183 239.591507,150.975555 
	C236.410065,150.985550 233.682053,150.959030 230.719925,150.715210 
	C229.656525,150.331741 228.827240,150.165543 227.980820,149.530975 
	C227.997787,114.027161 228.031876,78.991714 228.266678,43.758190 
	C228.348267,42.730099 228.229141,41.900089 228.077332,40.801643 
	C228.026779,40.353825 228.008926,40.174435 227.991074,39.995045 
M247.664322,94.571365 
	C256.100067,94.715164 264.535645,94.925270 272.971741,94.947746 
	C274.694275,94.952332 276.418701,94.252289 278.838257,93.829552 
	C280.152679,93.638893 281.467072,93.448235 283.056976,92.940025 
	C283.056976,92.940025 283.333588,92.623451 284.011322,92.725380 
	C294.239471,89.810234 299.568512,77.490784 295.648376,68.089027 
	C293.418976,62.742149 289.439850,60.413197 284.639008,57.642925 
	C284.093475,57.768715 283.547913,57.894505 282.290131,57.841248 
	C279.669342,57.255482 277.066620,56.287384 274.424011,56.162315 
	C268.646149,55.888859 262.845093,55.924992 257.059296,56.068314 
	C253.661850,56.152470 250.275543,56.685299 246.430450,57.013649 
	C246.430450,57.013649 245.976654,57.010990 245.464859,57.659927 
	C245.315536,67.028275 245.098373,76.396370 245.063705,85.765144 
	C245.054840,88.162331 245.622940,90.561661 246.537048,92.946411 
	C246.740189,92.930786 246.943344,92.915161 247.055557,92.935654 
	C247.055557,92.935654 247.104370,92.850868 247.038635,93.455864 
	C247.030045,93.657753 247.021439,93.859650 247.664322,94.571365 
z"/>
<path fill="#424345" opacity="1.000000" stroke="none" 
	d="
M642.985718,40.034698 
	C647.681274,40.005997 652.376892,39.977295 657.664673,40.179871 
	C658.459290,40.662785 658.705933,40.858551 659.012695,41.466988 
	C659.008240,77.959076 658.987976,113.982620 658.648682,150.008392 
	C657.572266,150.310822 656.814880,150.611053 655.591614,150.947998 
	C651.073547,150.967941 647.021301,150.951157 642.844482,150.743851 
	C642.519897,150.317886 642.280396,150.133835 641.997437,149.532455 
	C641.990967,140.985352 642.000000,132.906921 641.982239,124.828568 
	C641.968140,118.404488 641.921631,111.980484 641.858398,105.556740 
	C641.858337,105.547348 641.382202,105.499390 641.150330,105.557121 
	C641.059631,105.579704 641.029175,105.844284 640.765686,105.998505 
	C640.560059,105.998360 640.148865,105.997040 640.148865,105.997040 
	C638.911865,105.026382 637.684753,103.225471 636.436462,103.210724 
	C620.112061,103.017868 603.784607,103.119553 587.458374,103.041595 
	C583.828735,103.024269 582.999146,104.870232 583.021912,108.070717 
	C583.112000,120.731567 582.925964,133.395569 583.131653,146.053696 
	C583.194214,149.903503 582.162354,151.226028 578.122437,151.200989 
	C564.939758,151.119263 564.945679,151.282059 564.944885,138.290848 
	C564.942993,107.470032 565.040222,76.648453 564.818970,45.829182 
	C564.783691,40.918076 566.298523,39.679649 571.031250,39.800678 
	C583.052246,40.108093 583.050781,39.887093 583.047180,51.880150 
	C583.044373,61.376251 583.199524,70.875175 583.005310,80.367134 
	C582.923157,84.384323 584.155701,86.056335 588.401672,86.008080 
	C604.059998,85.830109 619.722778,85.817032 635.380798,86.002151 
	C639.300232,86.048492 640.104797,84.496819 640.092896,80.976364 
	C640.047424,67.496445 640.257629,54.015656 640.694885,40.729645 
	C641.017395,55.085335 641.017395,69.246567 641.017395,83.407806 
	C641.341370,83.405777 641.665405,83.403755 641.989380,83.401733 
	C641.989380,69.270416 641.989380,55.139103 642.189209,40.882423 
	C642.640747,40.559895 642.839661,40.319107 642.985718,40.034698 
z"/>
<path fill="#414245" opacity="1.000000" stroke="none" 
	d="
M487.574615,56.452217 
	C482.065552,57.034790 475.971497,63.261353 475.122437,69.175095 
	C474.513519,73.416290 478.631195,78.518456 484.139618,80.438835 
	C484.843567,80.684250 485.438934,81.240982 486.511536,81.794037 
	C486.938446,81.934586 487.228210,82.219414 487.228210,82.219414 
	C494.772766,84.073929 502.420502,85.594719 509.830353,87.885094 
	C516.130798,89.832565 522.236450,92.487183 528.284546,95.154625 
	C535.910828,98.518112 539.454712,104.627068 541.396240,112.797173 
	C545.729736,131.032349 533.496216,145.340591 520.575623,150.344513 
	C511.381561,153.905197 501.759033,154.739746 492.025940,153.900711 
	C487.262299,153.490097 482.105194,153.377869 477.922485,151.424988 
	C470.316589,147.873871 463.211182,143.193680 456.152588,138.592407 
	C455.158234,137.944229 454.912567,134.797058 455.532104,133.312088 
	C456.726654,130.448608 458.752686,127.923508 460.497742,125.300560 
	C462.313385,122.571564 464.266083,122.264328 467.041870,124.397697 
	C470.832703,127.311249 474.651154,130.724686 479.038208,132.213760 
	C487.853485,135.205917 496.940552,136.261002 506.552521,135.451187 
	C512.786377,134.925949 517.313477,133.268494 521.304199,128.948303 
	C524.826233,125.135551 523.840271,120.653137 522.700073,116.478561 
	C521.538269,112.225021 518.861511,109.232117 513.838013,108.854057 
	C511.263062,108.660263 508.766937,107.418045 506.218994,106.245697 
	C506.143555,105.905891 506.084351,105.970024 506.025146,106.034164 
	C504.774567,105.920563 503.523956,105.806961 502.238434,105.265427 
	C502.143463,104.902313 502.083435,104.967133 502.023376,105.031952 
	C500.775299,104.919891 499.527252,104.807831 498.220428,104.270325 
	C498.161682,103.844872 498.143463,103.586876 498.143463,103.586876 
	C498.143463,103.586876 498.024109,104.033615 498.024109,104.033615 
	C496.788696,103.906929 495.553253,103.780243 494.273071,103.251007 
	C494.164093,102.912964 494.099915,102.977455 494.035736,103.041946 
	C491.445679,102.569260 488.855652,102.096573 486.229065,101.239273 
	C486.138000,100.915909 486.083466,100.977150 486.028931,101.038383 
	C476.292328,97.870682 465.921692,95.802818 460.185303,85.806641 
	C459.321411,84.301292 458.121521,82.988792 457.148438,81.266907 
	C457.219849,80.946732 457.291229,80.624458 457.291229,80.624458 
	C457.291229,80.624458 457.018860,81.031898 457.018860,81.031898 
	C456.742889,79.924904 456.466919,78.817917 456.275574,77.285095 
	C456.434082,76.609276 456.507935,76.359291 456.581787,76.109314 
	C456.395538,76.418915 456.209259,76.728516 456.022980,77.038116 
	C455.683746,76.717827 455.055603,76.405289 455.046753,76.076149 
	C454.663879,61.788197 460.112335,47.598263 476.523895,41.537762 
	C486.845551,37.726154 497.228973,36.051754 508.243225,37.899284 
	C518.024292,39.539955 526.792847,43.228481 534.744507,48.987988 
	C536.835693,50.502682 538.208435,52.284943 536.065002,55.129776 
	C534.111267,57.722813 533.030151,60.995468 530.968933,63.473293 
	C530.256226,64.330055 527.506287,64.253777 526.118713,63.635166 
	C522.835510,62.171494 519.990112,59.639446 516.647278,58.412483 
	C507.990204,55.234962 498.991364,54.321930 489.410797,55.896622 
	C489.001709,56.002216 489.010315,56.013206 488.977905,55.859371 
	C488.945465,55.705536 488.604095,55.466084 488.604095,55.466084 
	C488.604095,55.466084 488.294495,55.736057 488.110260,55.910805 
	C487.808868,56.207771 487.691742,56.329994 487.574615,56.452217 
z"/>
<path fill="#414244" opacity="1.000000" stroke="none" 
	d="
M355.121124,111.600357 
	C356.643066,124.392906 365.887756,135.520340 377.509094,136.552612 
	C389.212433,137.592148 401.499481,137.055847 408.759888,125.538422 
	C411.629913,120.985619 413.532837,115.048500 413.671478,109.684715 
	C414.226349,88.215439 414.003815,66.723137 413.847626,45.240967 
	C413.817993,41.160706 414.993317,39.766262 419.196167,39.796185 
	C432.072571,39.887852 432.073456,39.725208 432.071014,52.576920 
	C432.067413,71.728790 431.547546,90.899658 432.250763,110.025551 
	C432.686951,121.888641 428.619659,131.555649 421.577393,140.389282 
	C419.770691,142.655594 417.287506,144.635437 414.717560,145.996078 
	C404.401184,151.458054 393.738861,156.074066 381.647736,154.813263 
	C366.463837,153.229935 352.790497,148.454163 343.328644,135.482513 
	C341.450165,132.907211 339.175140,130.377441 338.191437,127.453720 
	C336.908722,123.641235 336.296600,119.468918 336.184631,115.429573 
	C336.033325,109.970695 336.838531,104.492233 336.870239,99.020065 
	C336.973480,81.201073 337.029358,63.379791 336.826752,45.562531 
	C336.778625,41.328815 337.769623,39.721378 342.343842,39.788593 
	C355.122986,39.976387 355.125977,39.770267 355.125763,52.699249 
	C355.125427,72.184120 355.125153,91.668991 355.121124,111.600357 
z"/>
<path fill="#0F1113" opacity="1.000000" stroke="none" 
	d="
M687.065186,40.965809 
	C687.049805,77.007439 687.034363,113.049065 687.017944,149.787720 
	C687.016968,150.484741 687.060425,150.939590 687.015625,150.985168 
	C686.970825,151.030731 686.882141,151.122787 686.882141,151.122787 
	C686.882141,151.122787 686.511353,151.064606 686.263550,150.574326 
	C686.026489,113.078575 686.037170,76.073105 686.513184,39.046803 
	C703.648804,39.010387 720.319214,38.994804 736.989624,38.979221 
	C736.989624,38.979221 737.037292,39.376236 737.054138,39.574608 
	C721.015076,39.853149 704.959106,39.933319 688.212646,40.107822 
	C687.235413,40.376297 687.083130,40.630848 687.065186,40.965809 
z"/>
<path fill="#818383" opacity="1.000000" stroke="none" 
	d="
M246.973450,152.056335 
	C240.174438,152.470261 233.375427,152.884186 226.263214,153.317169 
	C226.172821,151.346909 226.076385,150.221893 226.076080,149.096832 
	C226.066437,113.645119 226.063171,78.193405 226.079956,42.741699 
	C226.080429,41.765591 226.311508,40.789585 226.692856,40.369946 
	C226.950668,77.855995 226.950668,114.785629 226.950668,152.056335 
	C234.029053,152.056335 240.501251,152.056335 246.973450,152.056335 
z"/>
<path fill="#0F1113" opacity="1.000000" stroke="none" 
	d="
M246.996948,151.804306 
	C240.501251,152.056335 234.029053,152.056335 226.950668,152.056335 
	C226.950668,114.785629 226.950668,77.855995 226.997528,40.459145 
	C227.044373,39.991936 227.517746,39.996086 227.754410,39.995567 
	C228.008926,40.174435 228.026779,40.353825 228.032532,41.160164 
	C228.035599,42.510166 228.050781,43.233215 228.065964,43.956268 
	C228.031876,78.991714 227.997787,114.027161 228.154800,149.817505 
	C229.215271,150.692429 230.084656,150.812469 230.954025,150.932495 
	C233.682053,150.959030 236.410065,150.985550 239.999542,151.003601 
	C242.226868,150.985077 243.592758,150.975021 245.214966,150.973419 
	C245.641937,150.991806 245.812622,151.001724 246.241989,151.060028 
	C246.674881,151.087616 246.849075,151.066833 247.023270,151.046051 
	C247.022324,151.214798 247.021378,151.383530 246.996948,151.804306 
z"/>
<path fill="#B5B6B6" opacity="1.000000" stroke="none" 
	d="
M686.047913,39.067635 
	C686.037170,76.073105 686.026489,113.078575 686.077515,150.550262 
	C686.041809,151.506348 685.944519,151.996201 685.847168,152.486053 
	C685.607605,152.488327 685.368103,152.490585 685.128540,152.492844 
	C685.128540,114.459480 685.128540,76.426102 685.565918,38.492268 
	C686.003296,38.591805 686.047913,39.067635 686.047913,39.067635 
z"/>
<path fill="#818383" opacity="1.000000" stroke="none" 
	d="
M659.835693,39.971767 
	C660.227722,40.411232 660.962585,40.850346 660.963013,41.290203 
	C661.000061,77.768547 660.980530,114.246964 660.954529,150.725372 
	C660.954285,151.042511 660.825195,151.365784 660.706726,151.666702 
	C660.695435,151.695404 660.329285,151.584412 660.032410,150.814148 
	C659.903137,113.383911 659.869385,76.677834 659.835693,39.971767 
z"/>
<path fill="#0F1113" opacity="1.000000" stroke="none" 
	d="
M659.636780,39.969627 
	C659.869385,76.677834 659.903137,113.383911 659.895752,150.558960 
	C659.854614,151.027954 659.492126,151.078613 659.267944,151.061569 
	C659.043823,151.044525 658.958740,150.957825 658.983887,150.720123 
	C659.009094,150.482422 658.967651,150.006165 658.967651,150.006165 
	C658.987976,113.982620 659.008240,77.959076 659.044922,41.213352 
	C659.054260,40.320866 659.047302,40.150555 659.040344,39.980244 
	C659.040344,39.980244 659.437927,39.967487 659.636780,39.969627 
z"/>
<path fill="#818383" opacity="1.000000" stroke="none" 
	d="
M686.513184,39.046803 
	C686.047913,39.067635 686.003296,38.591805 685.978760,38.354103 
	C702.843811,38.138783 719.733337,38.161167 736.806274,38.581383 
	C720.319214,38.994804 703.648804,39.010387 686.513184,39.046803 
z"/>
<path fill="#24272A" opacity="1.000000" stroke="none" 
	d="
M640.971313,105.998657 
	C641.029175,105.844284 641.059631,105.579704 641.150330,105.557121 
	C641.382202,105.499390 641.858337,105.547348 641.858398,105.556740 
	C641.921631,111.980484 641.968140,118.404488 641.982239,124.828568 
	C642.000000,132.906921 641.990967,140.985352 641.988342,149.761276 
	C641.983215,150.458817 642.015991,150.915649 642.010498,151.000336 
	C642.004944,151.085037 641.980347,151.253006 641.980347,151.253006 
	C641.980347,151.253006 641.510559,151.134628 641.272156,150.614899 
	C641.012939,135.396332 640.992126,120.697495 640.971313,105.998657 
z"/>
<path fill="#414244" opacity="1.000000" stroke="none" 
	d="
M640.765686,105.998505 
	C640.992126,120.697495 641.012939,135.396332 641.034668,150.567459 
	C640.690552,149.499252 640.053894,147.960190 640.046387,146.418045 
	C639.982361,133.255875 640.032593,120.093140 640.098755,106.463806 
	C640.148865,105.997040 640.560059,105.998360 640.765686,105.998505 
z"/>
<path fill="#24272A" opacity="1.000000" stroke="none" 
	d="
M641.989380,41.007790 
	C641.989380,55.139103 641.989380,69.270416 641.989380,83.401733 
	C641.665405,83.403755 641.341370,83.405777 641.017395,83.407806 
	C641.017395,69.246567 641.017395,55.085335 641.015381,40.453953 
	C641.013428,39.983807 641.512878,39.979202 641.742554,40.244476 
	C641.972168,40.509754 641.989380,41.007790 641.989380,41.007790 
z"/>
<path fill="#494B4D" opacity="1.000000" stroke="none" 
	d="
M247.026733,150.573593 
	C246.849075,151.066833 246.674881,151.087616 246.237534,150.590347 
	C245.960098,137.060089 245.945801,124.047905 245.931519,111.035713 
	C246.129807,111.032280 246.328079,111.028847 246.824005,111.030014 
	C247.091171,124.056793 247.060684,137.078964 247.026733,150.573593 
z"/>
<path fill="#0F1113" opacity="1.000000" stroke="none" 
	d="
M757.123291,151.403809 
	C763.344482,151.029419 769.709778,151.022049 776.544373,151.030792 
	C776.782959,151.474762 776.545166,152.279694 776.322449,152.275543 
	C769.969727,152.157089 763.618652,151.957352 757.123291,151.403809 
z"/>
<path fill="#0F1113" opacity="1.000000" stroke="none" 
	d="
M687.974915,150.946716 
	C692.685120,150.960892 697.395386,150.975052 702.798523,150.962845 
	C703.491455,150.936462 703.938721,150.873199 703.938721,150.873199 
	C704.114014,150.895020 704.289307,150.916840 704.728516,150.961578 
	C704.641846,151.510971 704.278687,152.503387 703.942261,152.494400 
	C698.371582,152.345490 692.804199,152.070831 687.059082,151.473557 
	C686.882141,151.122787 686.970825,151.030731 687.243958,151.008636 
	C687.517090,150.986557 687.974915,150.946716 687.974915,150.946716 
z"/>
<path fill="#0F1113" opacity="1.000000" stroke="none" 
	d="
M642.969116,150.934372 
	C647.021301,150.951157 651.073547,150.967941 655.953003,150.979172 
	C657.506409,150.968353 658.232605,150.963089 658.958740,150.957825 
	C658.958740,150.957825 659.043823,151.044525 659.087036,151.089035 
	C657.236755,151.753632 655.345093,152.879745 653.449524,152.886322 
	C649.735168,152.899231 646.018555,152.288162 642.141602,151.594177 
	C641.980347,151.253006 642.004944,151.085037 642.248291,151.028564 
	C642.491638,150.972076 642.969116,150.934372 642.969116,150.934372 
z"/>
<path fill="#0F1113" opacity="1.000000" stroke="none" 
	d="
M755.084717,149.246521 
	C755.593750,149.455673 756.141846,149.984406 756.828003,150.768799 
	C756.351929,150.538330 755.737793,150.052216 755.084717,149.246521 
z"/>
<path fill="#414245" opacity="1.000000" stroke="none" 
	d="
M486.794128,81.791626 
	C486.974792,81.521210 487.299835,81.393753 487.624817,81.266296 
	C487.637970,81.496689 487.651123,81.727089 487.446228,82.088448 
	C487.228210,82.219414 486.938446,81.934586 486.794128,81.791626 
z"/>
<path fill="#414245" opacity="1.000000" stroke="none" 
	d="
M488.996185,55.996223 
	C488.655579,56.275806 488.320496,56.561382 487.780029,56.649590 
	C487.691742,56.329994 487.808868,56.207771 488.301147,55.948669 
	C488.676270,55.811790 489.010315,56.013206 489.010315,56.013206 
	C489.010315,56.013206 489.001709,56.002216 488.996185,55.996223 
z"/>
<path fill="#424345" opacity="1.000000" stroke="none" 
	d="
M173.921906,43.914619 
	C174.037903,43.597317 174.261505,43.388573 174.485107,43.179825 
	C174.541611,43.445984 174.598129,43.712143 174.450104,44.108879 
	C174.245560,44.239452 174.029510,44.023178 173.921906,43.914619 
z"/>
<path fill="#424345" opacity="1.000000" stroke="none" 
	d="
M177.259155,89.751678 
	C177.469421,90.033493 177.503479,90.492149 177.257538,90.963516 
	C176.977524,90.976242 177.013428,91.007820 176.924622,90.850197 
	C176.835800,90.692574 176.745514,90.296524 176.745514,90.296524 
	C176.745514,90.296524 177.082932,89.928505 177.259155,89.751678 
z"/>
<path fill="#494B4D" opacity="1.000000" stroke="none" 
	d="
M642.189209,40.882423 
	C641.989380,41.007790 641.972168,40.509754 641.991699,40.261398 
	C642.011230,40.013042 642.499756,39.969147 642.742737,40.001923 
	C642.839661,40.319107 642.640747,40.559895 642.189209,40.882423 
z"/>
<path fill="#494B4D" opacity="1.000000" stroke="none" 
	d="
M658.780396,39.956917 
	C659.047302,40.150555 659.054260,40.320866 659.029053,40.744808 
	C658.705933,40.858551 658.459290,40.662785 658.130371,40.209961 
	C658.176025,39.983707 658.348267,39.958645 658.780396,39.956917 
z"/>
<path fill="#414345" opacity="1.000000" stroke="none" 
	d="
M749.757446,40.756176 
	C750.037292,40.537777 750.499329,40.494102 750.972839,40.733429 
	C750.984253,41.016426 751.005066,40.992813 750.850586,41.088634 
	C750.696045,41.184456 750.313538,41.270622 750.313538,41.270622 
	C750.188965,41.157379 750.064331,41.044140 749.757446,40.756176 
z"/>
<path fill="#0072F4" opacity="1.000000" stroke="none" 
	d="
M4.089571,4.732427 
	C6.958161,7.564205 9.826751,10.395983 13.091490,13.563706 
	C18.292368,18.352308 23.097099,22.804962 27.901829,27.257618 
	C27.938795,27.550938 28.074694,27.787401 28.663002,28.318291 
	C29.549824,28.935154 30.083164,29.200737 30.616505,29.466320 
	C30.616505,29.466320 30.513136,29.448124 30.553774,29.803116 
	C31.311890,30.833521 32.029369,31.508936 32.746845,32.184353 
	C32.746845,32.184353 32.769436,32.246201 32.852425,32.469452 
	C33.115501,32.955238 33.361458,33.118858 33.673283,33.183571 
	C35.433502,35.174229 37.193726,37.164883 38.500469,39.552246 
	C26.472593,39.948948 14.898194,39.948948 3.043692,39.948948 
	C3.043692,28.422113 3.024297,17.622717 3.088551,6.823821 
	C3.092711,6.124728 3.740945,5.429469 4.089571,4.732427 
z"/>
<path fill="#020A05" opacity="1.000000" stroke="none" 
	d="
M2.106720,2.824813 
	C3.444642,2.562757 4.782290,2.073445 6.120525,2.071839 
	C40.750336,2.030267 75.380211,2.039454 110.473389,2.075339 
	C109.022438,2.392502 107.108627,2.916379 105.193855,2.919861 
	C71.653503,2.980852 38.113037,2.978186 3.837659,2.972005 
	C2.770723,2.911380 2.438722,2.868096 2.106720,2.824813 
z"/>
<path fill="#CCCDCD" opacity="1.000000" stroke="none" 
	d="
M106.767265,41.635258 
	C71.982834,41.824421 37.145630,41.793392 2.179042,41.336437 
	C2.049652,40.910507 2.002893,40.984554 2.448817,40.998322 
	C15.638922,40.925137 28.383104,40.838181 41.579571,40.835411 
	C63.338448,40.922401 84.645042,40.925205 105.951630,40.928009 
	C106.217827,41.071705 106.472115,41.234058 106.767265,41.635258 
z"/>
<path fill="#0A7833" opacity="1.000000" stroke="none" 
	d="
M41.127285,40.751225 
	C28.383104,40.838181 15.638922,40.925137 2.423349,41.033943 
	C1.977273,28.634071 2.002588,16.212349 2.067312,3.307720 
	C2.438722,2.868096 2.770723,2.911380 3.342884,2.988533 
	C3.712353,3.398332 3.841661,3.774260 4.030271,4.441308 
	C3.740945,5.429469 3.092711,6.124728 3.088551,6.823821 
	C3.024297,17.622717 3.043692,28.422113 3.043692,39.948948 
	C14.898194,39.948948 26.472593,39.948948 38.515839,39.895752 
	C39.469910,39.929821 39.955128,40.017086 40.799316,40.298016 
	C41.158283,40.491684 41.127285,40.751225 41.127285,40.751225 
z"/>
<path fill="#020A05" opacity="1.000000" stroke="none" 
	d="
M41.579571,40.835411 
	C41.127285,40.751225 41.158283,40.491684 41.163925,40.362610 
	C62.562668,40.277496 83.955765,40.321457 105.650246,40.646713 
	C84.645042,40.925205 63.338448,40.922401 41.579571,40.835411 
z"/>
<path fill="#414244" opacity="1.000000" stroke="none" 
	d="
M27.880558,26.899206 
	C23.097099,22.804962 18.292368,18.352308 13.421157,13.543407 
	C18.189545,17.638374 23.024416,22.089584 27.880558,26.899206 
z"/>
<path fill="#414244" opacity="1.000000" stroke="none" 
	d="
M32.773628,31.839123 
	C32.029369,31.508936 31.311890,30.833521 30.548050,29.855280 
	C31.267929,30.199598 32.034168,30.846745 32.773628,31.839123 
z"/>
<path fill="#414244" opacity="1.000000" stroke="none" 
	d="
M33.820450,33.031090 
	C33.361458,33.118858 33.115501,32.955238 32.884804,32.475403 
	C33.212002,32.464939 33.589809,32.671776 33.820450,33.031090 
z"/>
<path fill="#414244" opacity="1.000000" stroke="none" 
	d="
M30.534058,29.146423 
	C30.083164,29.200737 29.549824,28.935154 28.856510,28.397196 
	C29.281561,28.358723 29.866585,28.592625 30.534058,29.146423 
z"/>
<path fill="#020A05" opacity="1.000000" stroke="none" 
	d="
M109.806763,40.245667 
	C109.681168,40.468758 109.348351,40.672962 108.918968,40.683247 
	C109.056297,40.327408 109.315346,40.239891 109.806763,40.245667 
z"/>
<path fill="#010101" opacity="1.000000" stroke="none" 
	d="
M115.998993,42.009033 
	C116.181061,41.805496 116.335991,41.570744 116.534081,41.381065 
	C116.582405,41.334789 116.772346,41.436409 116.897171,41.470028 
	C116.704193,41.591545 116.511223,41.713058 116.137756,41.903473 
	C115.957275,41.972378 115.987732,41.994404 115.998993,42.009033 
z"/>
<path fill="#000000" opacity="1.000000" stroke="none" 
	d="
M176.618713,90.380768 
	C176.745514,90.296524 176.835800,90.692574 176.943024,90.865417 
	C176.665817,91.002937 176.479706,90.811852 176.618713,90.380768 
z"/>
<path fill="#0072F4" opacity="1.000000" stroke="none" 
	d="
M4.357115,190.296600 
	C3.675511,189.656967 3.059053,188.808594 3.059255,187.960342 
	C3.064249,167.021851 3.134560,146.083389 3.219865,124.686295 
	C3.246499,124.227669 3.200066,124.151794 3.507190,124.207397 
	C5.025425,122.827126 6.236537,121.391251 7.447649,119.955376 
	C17.644085,110.130394 27.856165,100.321533 38.015060,90.457893 
	C39.150093,89.355858 39.983181,87.942841 40.848824,86.331032 
	C39.028889,85.674278 37.318462,85.102470 35.603630,85.088943 
	C24.980362,85.005135 14.356107,85.046799 3.373720,85.046799 
	C3.373720,78.691345 3.373720,72.648262 3.373720,66.304573 
	C37.702217,66.304573 71.893677,66.304573 106.660881,66.304573 
	C104.277603,69.124153 102.106842,71.692322 99.911163,74.608124 
	C99.886253,74.955765 99.941910,74.986290 99.604492,74.978294 
	C98.105721,76.598160 96.944366,78.226021 95.783012,79.853882 
	C90.921600,84.667099 86.060188,89.480316 80.702225,94.635254 
	C74.326317,100.712372 68.446960,106.447784 62.567612,112.183189 
	C60.949615,113.885345 59.331623,115.587494 57.152405,117.636124 
	C56.344074,118.622368 56.096966,119.262131 55.849854,119.901901 
	C55.849854,119.901901 55.935574,119.922615 55.596333,119.844543 
	C54.842030,120.192841 54.426964,120.619209 54.011902,121.045578 
	C54.011906,121.045578 53.995949,120.998207 53.691833,121.089447 
	C50.883179,124.097298 48.378639,127.013908 45.874100,129.930511 
	C45.874100,129.930511 45.957363,129.953766 45.627647,129.975311 
	C44.892944,130.684464 44.487961,131.372040 44.082973,132.059631 
	C44.082973,132.059631 44.064564,132.057663 44.060680,132.068237 
	C43.078701,134.080383 41.285275,136.068542 41.252121,138.085632 
	C40.997787,153.559494 40.874474,169.043289 41.190456,184.514191 
	C41.290756,189.424957 39.496483,190.311554 35.145123,190.191681 
	C25.006680,189.912399 14.855557,190.093399 4.357115,190.296600 
z"/>
<path fill="#2F8A6B" opacity="1.000000" stroke="none" 
	d="
M62.956860,112.285202 
	C68.446960,106.447784 74.326317,100.712372 80.551529,94.932671 
	C75.046967,100.721321 69.196541,106.554268 62.956860,112.285202 
z"/>
<path fill="#2F8A6B" opacity="1.000000" stroke="none" 
	d="
M46.185043,129.799957 
	C48.378639,127.013908 50.883179,124.097298 53.715794,121.096573 
	C51.527908,123.898094 49.011948,126.783737 46.185043,129.799957 
z"/>
<path fill="#0A7833" opacity="1.000000" stroke="none" 
	d="
M96.122314,79.795074 
	C96.944366,78.226021 98.105721,76.598160 99.612862,74.947723 
	C98.792976,76.528854 97.627304,78.132568 96.122314,79.795074 
z"/>
<path fill="#2F8A6B" opacity="1.000000" stroke="none" 
	d="
M44.400124,132.004257 
	C44.487961,131.372040 44.892944,130.684464 45.605942,129.937943 
	C45.515064,130.568970 45.116169,131.258926 44.400124,132.004257 
z"/>
<path fill="#2F8A6B" opacity="1.000000" stroke="none" 
	d="
M54.328289,121.110504 
	C54.426964,120.619209 54.842030,120.192841 55.576481,119.805176 
	C55.478806,120.287727 55.061741,120.731583 54.328289,121.110504 
z"/>
<path fill="#2F8A6B" opacity="1.000000" stroke="none" 
	d="
M56.209641,119.759941 
	C56.096966,119.262131 56.344074,118.622368 56.890137,117.772110 
	C56.982536,118.247070 56.775982,118.932526 56.209641,119.759941 
z"/>
<path fill="#424345" opacity="1.000000" stroke="none" 
	d="
M113.928253,104.086380 
	C113.268448,104.076500 112.755684,103.897087 112.242928,103.717667 
	C112.269432,103.539078 112.295937,103.360489 112.322441,103.181900 
	C112.851357,103.181900 113.380280,103.181900 114.136047,103.377075 
	C114.362907,103.572243 114.075294,103.916840 113.928253,104.086380 
z"/>
<path fill="#424345" opacity="1.000000" stroke="none" 
	d="
M138.094650,61.075340 
	C138.090759,61.770992 137.908325,62.311268 137.725891,62.851540 
	C137.524673,62.821743 137.323471,62.791950 137.122253,62.762157 
	C137.122253,62.202065 137.122253,61.641975 137.337433,60.849293 
	C137.552612,60.616703 137.916107,60.919960 138.094650,61.075340 
z"/>
<path fill="#0A7833" opacity="1.000000" stroke="none" 
	d="
M7.096741,120.028748 
	C6.236537,121.391251 5.025425,122.827126 3.462808,124.210281 
	C4.322813,122.805756 5.534324,121.453941 7.096741,120.028748 
z"/>
<path fill="#010202" opacity="1.000000" stroke="none" 
	d="
M756.228333,68.194275 
	C756.949951,74.590363 756.986145,80.948433 752.918091,86.375450 
	C749.339233,91.149910 743.878906,93.366608 738.321716,93.741608 
	C729.211792,94.356346 720.027100,93.786156 710.876892,93.918304 
	C706.567017,93.980560 704.959045,92.165543 705.049927,87.911987 
	C705.234741,79.262604 705.225891,70.604034 705.052063,61.954174 
	C704.965637,57.655666 706.700623,55.967201 710.968994,56.041531 
	C719.785706,56.195068 728.608337,55.986549 737.426392,56.095890 
	C744.767639,56.186920 750.620300,59.290741 754.812866,65.724854 
	C754.813110,66.062103 754.756287,66.329361 754.756287,66.329361 
	C754.756287,66.329361 754.979187,65.964600 754.979187,65.964600 
	C755.237549,66.394592 755.495911,66.824593 755.537354,67.697571 
	C755.332214,68.564362 755.343994,68.988190 755.355835,69.412003 
	C755.646667,69.006088 755.937500,68.600174 756.228333,68.194275 
z"/>
<path fill="#494B4D" opacity="1.000000" stroke="none" 
	d="
M703.841309,150.767914 
	C703.938721,150.873199 703.491455,150.936462 703.266113,150.926575 
	C703.214539,150.617889 703.448914,150.533203 703.841309,150.767914 
z"/>
<path fill="#494B4D" opacity="1.000000" stroke="none" 
	d="
M687.860718,150.759796 
	C687.974915,150.946716 687.517090,150.986557 687.288757,150.963074 
	C687.060425,150.939590 687.016968,150.484741 687.041626,150.257782 
	C687.335510,150.158249 687.562195,150.338928 687.860718,150.759796 
z"/>
<path fill="#000000" opacity="1.000000" stroke="none" 
	d="
M750.392822,41.389702 
	C750.313538,41.270622 750.696045,41.184456 750.860352,41.076775 
	C750.971313,41.322548 750.787109,41.502441 750.392822,41.389702 
z"/>
<path fill="#494B4D" opacity="1.000000" stroke="none" 
	d="
M687.248291,40.852829 
	C687.083130,40.630848 687.235413,40.376297 687.742432,40.136742 
	C687.837769,40.335667 687.660583,40.558506 687.248291,40.852829 
z"/>
<path fill="#010101" opacity="1.000000" stroke="none" 
	d="
M246.884216,57.016319 
	C250.275543,56.685299 253.661850,56.152470 257.059296,56.068314 
	C262.845093,55.924992 268.646149,55.888859 274.424011,56.162315 
	C277.066620,56.287384 279.669342,57.255482 282.637939,57.918144 
	C282.985718,57.995041 282.962189,57.975716 283.047302,58.299057 
	C283.762024,58.410141 284.391632,58.197876 285.013550,57.991173 
	C285.005829,57.996731 284.997437,58.012684 284.997437,58.012684 
	C289.439850,60.413197 293.418976,62.742149 295.648376,68.089027 
	C299.568512,77.490784 294.239471,89.810234 283.455200,92.466599 
	C282.374115,92.207817 281.849121,92.207817 281.324158,92.207817 
	C281.296661,92.379135 281.269165,92.550453 281.241669,92.721764 
	C281.754944,92.900368 282.268219,93.078979 282.781494,93.257584 
	C281.467072,93.448235 280.152679,93.638893 278.452850,93.861778 
	C278.067444,93.894005 278.048645,93.968399 277.911743,93.690651 
	C277.179199,93.304161 276.583557,93.195427 275.522095,93.039307 
	C265.738983,92.944916 256.421661,92.897888 247.104370,92.850868 
	C247.104370,92.850868 247.055557,92.935654 247.062378,92.459396 
	C247.007538,80.327538 246.945877,68.671928 246.884216,57.016319 
z"/>
<path fill="#24272A" opacity="1.000000" stroke="none" 
	d="
M245.683990,111.361145 
	C245.945801,124.047905 245.960098,137.060089 245.978851,150.541962 
	C245.812622,151.001724 245.641937,150.991806 245.237122,150.733612 
	C245.002960,150.485352 244.989807,150.003632 244.989807,150.003632 
	C244.991669,145.635513 244.993546,141.267410 244.988373,136.110901 
	C244.974243,134.892715 244.967163,134.462921 244.960083,134.033127 
	C245.118881,126.584274 245.277679,119.135429 245.683990,111.361145 
z"/>
<path fill="#494B4D" opacity="1.000000" stroke="none" 
	d="
M246.657333,57.014984 
	C246.945877,68.671928 247.007538,80.327538 247.107834,92.441345 
	C246.943344,92.915161 246.740189,92.930786 246.244156,92.489227 
	C245.959732,80.358360 245.968185,68.684677 245.976654,57.010990 
	C245.976654,57.010990 246.430450,57.013649 246.657333,57.014984 
z"/>
<path fill="#24272A" opacity="1.000000" stroke="none" 
	d="
M245.720764,57.335457 
	C245.968185,68.684677 245.959732,80.358360 245.938599,92.496025 
	C245.622940,90.561661 245.054840,88.162331 245.063705,85.765144 
	C245.098373,76.396370 245.315536,67.028275 245.720764,57.335457 
z"/>
<path fill="#24272A" opacity="1.000000" stroke="none" 
	d="
M278.104858,93.885529 
	C276.418701,94.252289 274.694275,94.952332 272.971741,94.947746 
	C264.535645,94.925270 256.100067,94.715164 247.805984,94.314072 
	C257.294800,94.026894 266.641968,93.997009 276.332336,93.980270 
	C277.133270,93.985069 277.590973,93.976730 278.048645,93.968399 
	C278.048645,93.968399 278.067444,93.894005 278.104858,93.885529 
z"/>
<path fill="#494B4D" opacity="1.000000" stroke="none" 
	d="
M275.989105,93.967125 
	C266.641968,93.997009 257.294800,94.026894 247.480255,94.059166 
	C247.021439,93.859650 247.030045,93.657753 247.071503,93.153366 
	C256.421661,92.897888 265.738983,92.944916 275.526611,93.259293 
	C275.996948,93.526657 275.989105,93.967125 275.989105,93.967125 
z"/>
<path fill="#494B4D" opacity="1.000000" stroke="none" 
	d="
M244.612091,150.000549 
	C244.989807,150.003632 245.002960,150.485352 244.980804,150.725159 
	C243.592758,150.975021 242.226868,150.985077 240.452942,150.967102 
	C241.441406,150.625183 242.837906,150.311325 244.612091,150.000549 
z"/>
<path fill="#494B4D" opacity="1.000000" stroke="none" 
	d="
M228.266678,43.758190 
	C228.050781,43.233215 228.035599,42.510166 228.065216,41.428596 
	C228.229141,41.900089 228.348267,42.730099 228.266678,43.758190 
z"/>
<path fill="#494B4D" opacity="1.000000" stroke="none" 
	d="
M230.719925,150.715210 
	C230.084656,150.812469 229.215271,150.692429 228.171921,150.285873 
	C228.827240,150.165543 229.656525,150.331741 230.719925,150.715210 
z"/>
<path fill="#010101" opacity="1.000000" stroke="none" 
	d="
M282.994049,58.007668 
	C283.547913,57.894505 284.093475,57.768715 284.818237,57.827805 
	C284.997437,58.012684 285.005829,57.996731 284.675415,57.899872 
	C283.884064,57.860580 283.423126,57.918148 282.962189,57.975716 
	C282.962189,57.975716 282.985718,57.995041 282.994049,58.007668 
z"/>
<path fill="#494B4D" opacity="1.000000" stroke="none" 
	d="
M244.781189,134.191742 
	C244.967163,134.462921 244.974243,134.892715 244.970337,135.644409 
	C244.840332,135.427643 244.721313,134.888992 244.781189,134.191742 
z"/>
<path fill="#494B4D" opacity="1.000000" stroke="none" 
	d="
M658.983887,150.720123 
	C658.232605,150.963089 657.506409,150.968353 656.418884,150.942444 
	C656.814880,150.611053 657.572266,150.310822 658.648682,150.008392 
	C658.967651,150.006165 659.009094,150.482422 658.983887,150.720123 
z"/>
<path fill="#494B4D" opacity="1.000000" stroke="none" 
	d="
M642.844482,150.743851 
	C642.969116,150.934372 642.491638,150.972076 642.253784,150.943863 
	C642.015991,150.915649 641.983215,150.458817 641.992310,150.229996 
	C642.280396,150.133835 642.519897,150.317886 642.844482,150.743851 
z"/>
<path fill="#000000" opacity="1.000000" stroke="none" 
	d="
M456.013611,77.024185 
	C456.209259,76.728516 456.395538,76.418915 456.581787,76.109314 
	C456.507935,76.359291 456.434082,76.609276 456.169037,76.924896 
	C455.977844,76.990540 456.004211,77.010239 456.013611,77.024185 
z"/>
<path fill="#000000" opacity="1.000000" stroke="none" 
	d="
M488.977905,55.859371 
	C489.010315,56.013206 488.676270,55.811790 488.485382,55.773926 
	C488.294495,55.736057 488.604095,55.466084 488.604095,55.466084 
	C488.604095,55.466084 488.945465,55.705536 488.977905,55.859371 
z"/>
<path fill="#000000" opacity="1.000000" stroke="none" 
	d="
M457.005005,81.014198 
	C457.018860,81.031898 457.291229,80.624458 457.291229,80.624458 
	C457.291229,80.624458 457.219849,80.946732 457.088867,80.956429 
	C456.957886,80.966125 456.991150,80.996498 457.005005,81.014198 
z"/>
<path fill="#000000" opacity="1.000000" stroke="none" 
	d="
M498.013611,104.021042 
	C498.024109,104.033615 498.143463,103.586876 498.143463,103.586876 
	C498.143463,103.586876 498.161682,103.844872 498.068695,103.918869 
	C497.975708,103.992874 498.003082,104.008469 498.013611,104.021042 
z"/>
<path fill="#000000" opacity="1.000000" stroke="none" 
	d="
M486.015045,101.023178 
	C486.083466,100.977150 486.138000,100.915909 486.079895,100.919724 
	C485.967285,100.984779 486.001160,101.007965 486.015045,101.023178 
z"/>
<path fill="#000000" opacity="1.000000" stroke="none" 
	d="
M494.020050,103.025917 
	C494.099915,102.977455 494.164093,102.912964 494.098328,102.915871 
	C493.968384,102.983276 494.004364,103.009888 494.020050,103.025917 
z"/>
<path fill="#000000" opacity="1.000000" stroke="none" 
	d="
M506.012695,106.020340 
	C506.084351,105.970024 506.143555,105.905891 506.085938,105.914261 
	C505.969116,105.986763 506.000275,106.006531 506.012695,106.020340 
z"/>
<path fill="#000000" opacity="1.000000" stroke="none" 
	d="
M502.011780,105.018951 
	C502.083435,104.967133 502.143463,104.902313 502.087097,104.912743 
	C501.970703,104.987991 502.000153,105.005936 502.011780,105.018951 
z"/>
<path fill="#414345" opacity="1.000000" stroke="none" 
	d="
M756.110046,68.094101 
	C755.937500,68.600174 755.646667,69.006088 755.355835,69.412003 
	C755.343994,68.988190 755.332214,68.564362 755.538696,67.966019 
	C755.756958,67.791489 755.991760,67.993942 756.110046,68.094101 
z"/>
<path fill="#414345" opacity="1.000000" stroke="none" 
	d="
M754.992859,65.982254 
	C754.979187,65.964600 754.756287,66.329361 754.756287,66.329361 
	C754.756287,66.329361 754.813110,66.062103 754.926575,66.045799 
	C755.040039,66.029495 755.006531,65.999916 754.992859,65.982254 
z"/>
<path fill="#414345" opacity="1.000000" stroke="none" 
	d="
M283.047302,58.299061 
	C283.423126,57.918148 283.884064,57.860580 284.683105,57.894314 
	C284.391632,58.197876 283.762024,58.410141 283.047302,58.299061 
z"/>
<path fill="#414345" opacity="1.000000" stroke="none" 
	d="
M276.332336,93.980270 
	C275.989105,93.967125 275.996948,93.526657 275.992432,93.306671 
	C276.583557,93.195427 277.179199,93.304161 277.911743,93.690643 
	C277.590973,93.976730 277.133270,93.985069 276.332336,93.980270 
z"/>
<path fill="#414345" opacity="1.000000" stroke="none" 
	d="
M282.919250,93.098801 
	C282.268219,93.078979 281.754944,92.900368 281.241669,92.721764 
	C281.269165,92.550453 281.296661,92.379135 281.324158,92.207817 
	C281.849121,92.207817 282.374115,92.207817 283.116333,92.415634 
	C283.333588,92.623451 283.056976,92.940025 282.919250,93.098801 
z"/>
</svg>